<?xml version="1.0" standalone="no"?>
<!DOCTYPE svg PUBLIC "-//W3C//DTD SVG 20010904//EN"
 "http://www.w3.org/TR/2001/REC-SVG-20010904/DTD/svg10.dtd">
<svg version="1.0" xmlns="http://www.w3.org/2000/svg"
 width="948.000000pt" height="948.000000pt" viewBox="0 0 948.000000 948.000000"
 preserveAspectRatio="xMidYMid meet">
<metadata>
Created by potrace 1.11, written by Peter Selinger 2001-2013
</metadata>
<g transform="translate(0.000000,948.000000) scale(0.100000,-0.100000)"
fill="#000000" stroke="none">
<path d="M5795 9069 c-27 -5 -90 -11 -139 -14 -50 -3 -147 -20 -223 -39 -124
-32 -173 -54 -173 -79 0 -6 -11 -25 -25 -43 -14 -18 -25 -37 -25 -43 0 -5 -17
-24 -38 -41 -36 -28 -39 -37 -57 -124 -24 -123 -17 -185 30 -285 21 -42 39
-89 42 -106 7 -41 59 -181 81 -219 12 -20 17 -44 15 -63 -4 -21 6 -52 32 -104
21 -41 40 -76 44 -79 3 -3 17 -27 31 -55 14 -27 35 -64 47 -81 11 -18 39 -83
61 -146 50 -142 167 -601 159 -622 -10 -24 -51 -39 -89 -32 -23 4 -41 18 -60
44 -14 20 -51 65 -81 100 -67 77 -116 169 -151 282 -15 47 -38 109 -52 138
-17 34 -29 80 -35 130 -4 42 -14 111 -23 152 -8 41 -22 122 -31 180 -9 58 -28
139 -41 180 -13 41 -24 93 -24 115 0 50 -18 115 -31 115 -6 0 -9 36 -8 88 1
48 -3 112 -10 142 -23 103 -28 140 -20 140 5 0 23 22 40 50 17 27 48 63 69 80
45 36 66 83 45 100 -20 17 -153 -12 -213 -45 -45 -26 -127 -44 -222 -50 -64
-4 -260 -23 -360 -34 -53 -7 -89 -16 -95 -25 -6 -8 -37 -21 -70 -30 -32 -8
-63 -22 -67 -31 -6 -9 -23 -15 -48 -15 -29 0 -48 -8 -72 -29 -18 -15 -49 -36
-68 -46 -19 -10 -47 -28 -62 -41 -15 -12 -53 -30 -83 -39 -67 -19 -83 -41 -96
-132 -5 -37 -14 -79 -19 -93 -14 -33 -14 -59 -2 -230 11 -174 20 -199 131
-399 35 -64 100 -131 126 -131 10 0 15 -10 15 -32 0 -19 16 -59 35 -93 19 -33
41 -76 51 -95 29 -62 123 -197 149 -214 14 -9 25 -25 25 -35 0 -10 6 -21 14
-24 7 -3 16 -19 19 -36 4 -17 14 -39 24 -49 41 -43 57 -68 69 -108 17 -58 30
-80 74 -128 41 -44 43 -53 41 -189 -1 -38 3 -76 9 -85 8 -14 9 -14 10 -2 0 8
16 39 35 67 19 29 35 57 35 62 0 21 20 20 40 -1 17 -18 20 -30 15 -59 -4 -20
-3 -53 1 -74 6 -34 9 -36 33 -31 52 13 56 12 56 -15 0 -15 8 -36 18 -46 30
-34 20 -76 -24 -98 -51 -27 -67 -20 -71 28 -3 37 -6 42 -29 45 -22 3 -27 -2
-32 -25 -3 -15 -31 -54 -62 -87 -41 -43 -55 -66 -55 -88 0 -56 -71 -98 -112
-65 -24 18 -108 158 -108 178 0 6 -12 25 -26 43 -40 48 -84 122 -130 219 -23
49 -49 96 -57 105 -35 39 -195 341 -207 390 -6 28 -17 55 -24 60 -17 10 -90
139 -111 198 -10 27 -27 61 -37 76 -10 14 -18 33 -18 43 0 17 -25 71 -45 95
-6 8 -19 41 -28 73 -15 55 -15 57 5 68 17 9 19 17 13 55 -11 78 -35 144 -51
144 -8 0 -20 11 -26 25 -6 13 -19 27 -29 30 -24 8 -32 44 -35 165 -1 58 -3
110 -3 116 -1 8 -15 9 -46 3 -55 -10 -70 -18 -124 -64 -24 -19 -51 -35 -61
-35 -10 0 -27 -10 -37 -23 -21 -26 -87 -67 -109 -67 -8 0 -24 -10 -35 -21 -12
-12 -40 -26 -63 -31 -22 -5 -50 -17 -61 -27 -11 -10 -37 -24 -57 -31 -21 -6
-38 -15 -38 -20 0 -5 -17 -14 -37 -21 -21 -6 -49 -20 -62 -30 -12 -10 -38 -21
-57 -25 -19 -3 -38 -12 -42 -19 -7 -12 -46 -35 -122 -71 -19 -9 -37 -19 -40
-23 -3 -4 -26 -22 -52 -39 -25 -17 -68 -57 -94 -88 -26 -30 -65 -64 -86 -75
-25 -13 -46 -35 -63 -67 -23 -42 -61 -100 -83 -127 -4 -5 -21 -21 -38 -35 -59
-51 -59 -49 -25 -159 17 -55 42 -112 55 -128 13 -15 27 -38 30 -51 4 -13 29
-51 55 -85 26 -34 73 -106 105 -159 56 -96 71 -114 177 -215 30 -28 113 -122
184 -208 160 -192 209 -245 257 -274 40 -24 186 -186 203 -225 12 -27 39 -56
53 -56 5 0 12 -10 16 -23 3 -13 37 -56 76 -96 45 -47 82 -98 106 -144 19 -40
53 -93 75 -118 55 -67 72 -99 120 -234 23 -66 48 -125 56 -131 16 -14 43 -88
43 -121 0 -41 -36 -97 -80 -126 -37 -24 -49 -27 -87 -21 -35 5 -49 13 -63 37
-29 46 -120 149 -172 192 -13 11 -31 34 -40 50 -48 92 -58 109 -72 124 -8 9
-18 30 -22 46 -4 17 -15 41 -24 55 -40 58 -118 238 -125 289 -6 43 -14 61 -36
80 -16 14 -29 31 -29 37 0 6 -9 19 -20 29 -11 10 -20 23 -20 30 0 6 -27 41
-60 76 -33 35 -60 69 -60 75 0 6 -9 19 -20 29 -11 10 -20 24 -20 31 0 7 -9 18
-20 24 -11 6 -20 17 -20 26 0 19 -215 232 -282 278 -29 20 -80 59 -113 87 -33
28 -86 66 -117 84 -78 46 -188 160 -255 262 -71 109 -93 167 -93 246 0 81 -16
113 -55 110 -49 -4 -79 -22 -115 -68 -19 -24 -41 -44 -48 -45 -7 0 -15 -7 -19
-16 -3 -9 -15 -26 -27 -39 -12 -12 -31 -34 -43 -48 -11 -15 -33 -32 -47 -38
-15 -7 -29 -24 -33 -38 -3 -14 -17 -39 -30 -55 -13 -16 -33 -46 -43 -67 -11
-21 -40 -67 -65 -102 -25 -36 -45 -68 -45 -72 0 -3 -19 -37 -43 -73 -59 -92
-147 -276 -147 -308 0 -9 -14 -60 -31 -113 -27 -84 -33 -120 -44 -296 -7 -110
-17 -212 -23 -226 -7 -17 -7 -40 -1 -65 4 -22 9 -67 9 -100 0 -59 15 -162 25
-172 3 -3 27 -6 55 -7 45 -1 53 -5 75 -35 14 -19 25 -42 25 -51 0 -10 20 -28
53 -44 28 -15 67 -45 86 -67 18 -21 45 -45 60 -53 14 -7 45 -31 67 -52 23 -21
88 -60 145 -87 57 -26 112 -52 123 -58 32 -17 148 -40 236 -47 69 -6 100 -14
165 -45 76 -37 86 -39 193 -42 95 -3 122 -8 168 -29 30 -14 85 -30 122 -36
351 -56 392 -68 471 -141 78 -72 79 -92 9 -113 -28 -8 -61 -21 -73 -29 -13 -8
-65 -25 -116 -37 l-94 -22 -195 17 c-107 9 -229 19 -270 22 -41 4 -127 18
-190 32 -99 22 -141 26 -310 27 -227 2 -269 12 -479 107 -35 16 -45 17 -52 7
-8 -14 4 -35 31 -56 8 -6 35 -29 60 -52 25 -22 50 -41 56 -41 6 0 33 -26 58
-57 27 -33 64 -64 87 -74 43 -20 50 -42 19 -59 -22 -12 -65 5 -89 34 -19 23
-54 20 -79 -6 -20 -22 -20 -25 -6 -88 15 -65 53 -134 80 -144 8 -3 14 -12 14
-20 0 -12 23 -26 50 -30 3 0 17 -13 32 -29 29 -28 34 -53 29 -133 -3 -49 10
-61 41 -40 12 9 26 16 30 16 15 0 38 -60 38 -99 0 -33 9 -49 51 -100 45 -54
230 -220 311 -278 50 -37 91 -39 131 -9 18 14 49 31 68 37 19 6 44 16 57 22
17 8 35 8 68 -1 24 -7 53 -12 64 -12 11 0 20 -4 20 -9 0 -12 105 -23 214 -21
65 1 99 6 126 20 19 10 75 28 124 39 48 12 118 35 156 51 44 19 85 30 115 30
53 0 164 37 240 80 27 15 66 31 85 35 19 3 83 20 141 36 67 19 117 27 136 23
26 -5 32 -2 51 30 12 21 37 43 59 53 50 23 49 21 32 38 -12 12 -21 11 -69 -5
-54 -18 -56 -18 -85 0 -17 11 -40 17 -51 14 -31 -7 -47 11 -54 65 l-6 51 34 6
c20 4 48 1 70 -8 21 -8 43 -13 50 -10 20 6 15 102 -8 140 -11 18 -85 97 -165
176 -80 80 -145 149 -145 154 0 5 -16 20 -35 33 -19 13 -35 28 -35 33 0 13
-119 130 -147 145 -13 6 -38 35 -56 64 -19 29 -46 58 -60 66 -15 8 -27 19 -27
25 0 14 -44 56 -59 56 -6 0 -11 4 -11 8 0 12 -30 47 -107 124 l-67 66 40 11
c93 26 108 25 147 -9 21 -18 37 -38 37 -44 0 -7 11 -18 24 -25 30 -16 252
-262 268 -296 6 -14 14 -25 18 -25 3 0 21 -14 38 -31 18 -17 32 -27 32 -23 0
5 16 -14 35 -41 20 -28 49 -60 65 -73 17 -13 30 -28 30 -34 0 -14 87 -90 120
-104 15 -7 55 -44 91 -83 74 -84 121 -105 164 -77 14 9 25 22 25 30 0 7 11 33
25 57 37 65 65 129 65 146 0 9 11 40 25 69 22 47 25 63 20 126 -3 40 -8 82
-11 93 -4 11 -8 49 -9 85 -2 36 -6 77 -10 93 -6 21 -4 27 9 27 9 0 16 -6 16
-14 0 -7 6 -19 14 -25 8 -7 18 -27 22 -44 3 -18 11 -38 16 -45 6 -7 8 -32 6
-57 -6 -53 4 -57 70 -25 22 11 57 20 77 20 32 0 35 -3 35 -27 -1 -16 -7 -39
-15 -53 -24 -43 -19 -52 20 -33 31 15 37 15 50 2 14 -13 14 -23 -1 -87 -9 -40
-27 -87 -40 -105 -13 -17 -28 -42 -34 -55 -20 -45 -91 -142 -141 -192 -48 -48
-50 -53 -44 -89 4 -22 12 -46 18 -54 13 -17 124 -29 133 -15 3 4 9 6 14 3 5
-3 47 -6 94 -6 83 -1 85 -2 96 -29 7 -16 9 -34 5 -39 -3 -6 -36 -11 -73 -11
-37 0 -83 -5 -102 -10 -19 -6 -72 -17 -118 -25 -103 -18 -143 -45 -136 -91 5
-24 -4 -46 -39 -105 -34 -55 -43 -78 -36 -91 18 -33 11 -58 -16 -58 -21 0 -25
-4 -20 -22 26 -116 32 -147 28 -152 -3 -3 -7 -24 -8 -48 -4 -45 -10 -104 -20
-203 -4 -33 -13 -85 -20 -115 -7 -30 -18 -111 -25 -180 -6 -69 -16 -141 -22
-161 -21 -72 52 -326 111 -389 9 -9 27 -31 41 -49 14 -17 30 -31 37 -31 7 0
13 -5 13 -11 0 -6 25 -37 55 -68 31 -31 62 -63 71 -72 8 -9 34 -26 58 -39 24
-12 58 -35 75 -51 21 -18 43 -29 62 -29 33 0 77 -20 125 -56 17 -13 42 -24 56
-24 13 0 35 -11 48 -25 13 -14 28 -25 34 -25 6 0 28 -9 48 -20 20 -10 67 -26
104 -35 38 -9 75 -22 84 -29 16 -15 63 -26 120 -30 73 -5 127 -19 170 -44 40
-23 58 -26 168 -30 112 -4 125 -3 145 15 12 11 31 25 41 30 16 9 10 12 -35 18
-104 13 -201 47 -244 85 -11 10 -36 23 -56 29 -19 6 -79 38 -133 71 -53 32
-106 62 -116 65 -11 4 -20 10 -20 15 0 4 -31 32 -70 61 -38 30 -70 58 -70 64
0 6 -26 30 -59 53 -69 51 -132 125 -172 205 -16 32 -38 66 -48 76 -10 10 -24
35 -31 55 -6 20 -16 38 -21 41 -5 4 -9 16 -9 27 0 19 -21 67 -66 150 -8 15
-24 67 -35 115 -11 48 -25 99 -31 113 -17 37 -19 130 -3 130 27 0 64 -42 71
-78 11 -64 42 -152 64 -179 11 -14 20 -35 20 -47 0 -11 14 -43 30 -71 16 -27
30 -58 30 -67 0 -9 7 -21 16 -26 8 -4 22 -28 30 -53 9 -24 24 -53 34 -64 10
-11 30 -41 43 -67 14 -27 41 -67 61 -90 20 -23 36 -45 36 -49 0 -4 14 -16 30
-26 17 -9 30 -20 30 -23 0 -5 146 -154 230 -234 25 -23 71 -55 102 -71 32 -15
65 -36 74 -47 10 -10 25 -18 34 -18 10 0 28 -8 41 -19 38 -29 138 -73 154 -67
8 3 15 2 15 -2 0 -11 171 -6 218 7 23 6 42 15 42 19 -1 21 -25 31 -120 45 -69
11 -113 23 -132 37 -15 11 -30 20 -34 20 -4 0 -36 19 -71 41 -47 31 -72 56
-99 101 -20 33 -58 87 -85 120 -31 39 -58 88 -78 142 -16 46 -39 99 -50 117
-15 24 -21 51 -21 91 0 52 -5 66 -52 140 -80 129 -92 148 -100 148 -13 0 -126
155 -164 225 -36 66 -37 68 -28 133 l9 67 44 14 c35 11 55 12 90 4 87 -20 121
-39 189 -106 73 -70 84 -83 147 -182 22 -35 61 -86 88 -115 26 -28 47 -57 47
-64 0 -8 9 -25 20 -39 12 -15 27 -48 35 -75 8 -27 24 -60 34 -74 11 -13 23
-38 27 -54 3 -16 12 -39 20 -51 32 -51 82 -151 93 -184 6 -20 29 -65 50 -100
21 -35 41 -76 44 -90 7 -28 93 -121 145 -156 51 -36 82 -49 147 -63 33 -7 77
-21 97 -31 21 -11 58 -19 83 -19 62 0 181 28 196 46 6 8 29 14 54 14 56 0 101
16 152 54 51 37 54 54 11 58 -30 3 -28 4 22 17 60 15 90 35 90 60 0 21 231 77
277 67 48 -11 107 10 142 49 20 23 45 38 76 46 35 9 57 24 95 66 56 62 121
164 147 235 l17 47 -28 50 -27 51 32 39 c45 57 22 99 -38 69 -36 -18 -124 -15
-153 5 -18 12 -27 13 -46 5 -18 -9 -28 -8 -36 0 -8 8 -7 13 5 17 9 3 24 7 33
10 9 3 14 14 12 27 -3 20 -9 23 -53 24 -28 1 -60 6 -72 12 -12 7 -50 12 -85
12 -193 0 -446 77 -552 168 -28 24 -107 82 -176 130 -89 62 -160 122 -245 209
-66 67 -155 153 -197 190 -51 45 -112 117 -179 208 -137 188 -139 191 -139
251 0 65 44 138 96 160 66 28 144 39 167 24 12 -7 71 -30 133 -50 119 -40 274
-114 339 -162 22 -16 56 -39 75 -52 19 -13 49 -35 65 -50 17 -14 34 -26 39
-26 5 0 27 -16 50 -36 22 -19 52 -45 66 -57 14 -12 39 -29 55 -37 16 -8 40
-31 54 -51 24 -33 111 -93 171 -118 14 -6 43 -22 65 -36 71 -44 115 -66 124
-61 4 3 21 -5 38 -17 61 -44 108 -82 115 -93 9 -14 170 -97 218 -113 19 -6 73
-33 120 -61 47 -27 94 -50 104 -50 10 0 42 -11 70 -24 28 -14 71 -26 96 -28
25 -2 50 -9 56 -16 5 -8 32 -18 59 -23 38 -7 53 -6 69 6 12 8 38 26 58 40 28
18 39 34 44 62 4 23 18 46 36 61 28 24 94 149 117 223 6 20 24 48 40 63 16 15
40 55 54 89 52 128 136 406 157 517 12 63 33 164 47 223 29 124 25 147 -32
186 -28 19 -42 22 -72 16 -56 -10 -403 -12 -403 -2 0 5 -17 6 -37 2 -22 -3
-67 1 -108 10 -38 9 -108 25 -155 35 -48 11 -90 26 -96 35 -21 28 -104 47
-226 50 -64 1 -122 6 -129 10 -7 5 -42 7 -80 6 -40 -1 -70 2 -74 9 -3 6 -23
10 -43 9 -72 -1 -153 8 -190 23 -67 28 -109 38 -125 32 -8 -3 -37 2 -63 11
-28 9 -62 14 -80 11 -39 -8 -79 -51 -93 -100 l-10 -38 45 7 c36 5 49 2 70 -14
40 -32 67 -27 95 17 35 53 54 49 54 -12 0 -54 7 -49 -87 -70 -24 -5 -28 -11
-28 -41 0 -39 -11 -49 -41 -40 -17 6 -20 13 -15 36 6 34 3 35 -74 14 -30 -8
-55 -13 -57 -11 -2 2 4 20 12 40 9 20 13 42 9 47 -11 18 -74 40 -94 34 -21 -7
-57 36 -45 55 8 13 65 13 65 0 0 -12 50 -13 66 -2 6 4 14 33 17 64 6 65 19 56
-122 79 -138 21 -231 102 -231 202 0 28 34 55 63 50 20 -4 33 2 55 27 l30 32
58 -12 c33 -7 95 -21 139 -31 82 -19 293 -48 401 -55 34 -2 83 -9 110 -15 27
-5 68 -14 92 -18 24 -4 48 -13 54 -19 7 -7 22 -12 34 -12 12 0 24 -4 26 -10 2
-5 37 -19 78 -31 41 -11 84 -29 95 -39 24 -23 123 -50 181 -50 23 0 63 -4 90
-9 27 -5 65 -6 84 -2 19 4 42 4 50 0 36 -17 116 -29 189 -29 104 0 208 -31
221 -66 8 -21 15 -24 64 -24 67 0 166 30 227 68 61 39 90 89 100 171 4 36 13
89 18 116 18 84 30 226 22 249 -6 14 -4 25 7 35 19 19 -2 29 -23 11 -10 -8
-14 -30 -12 -72 2 -52 -1 -62 -21 -79 -17 -13 -29 -16 -41 -9 -10 5 -28 6 -40
3 -14 -3 -26 -1 -31 7 -6 9 -19 10 -56 2 -28 -6 -55 -7 -64 -2 -9 5 -27 6 -39
3 -13 -3 -26 -2 -30 3 -3 5 -24 19 -46 31 -22 12 -41 26 -43 31 -1 5 21 15 50
22 83 19 88 21 88 35 0 22 57 29 85 11 27 -17 55 -21 55 -7 0 5 14 14 30 21
39 16 38 33 -2 51 -37 16 -51 49 -21 49 11 0 24 5 31 12 9 9 18 6 39 -14 l28
-26 35 19 c19 10 40 19 47 19 12 0 17 33 16 103 0 9 4 17 9 17 4 0 8 8 7 18 0
14 -3 13 -16 -5 -23 -33 -46 -28 -99 22 -46 42 -55 73 -14 47 35 -22 79 -15
106 18 14 16 31 27 38 24 9 -3 17 16 26 64 12 66 12 70 -9 91 -11 11 -21 29
-21 39 0 9 -9 31 -20 47 -23 35 -24 53 -9 106 11 34 16 39 60 49 45 11 48 13
44 42 -2 17 -6 33 -10 36 -7 7 -67 -27 -78 -45 -4 -7 -18 -13 -31 -13 -13 0
-34 -8 -47 -18 -59 -45 -120 -65 -208 -68 -47 -1 -123 -12 -169 -23 -74 -19
-92 -20 -165 -11 -45 6 -125 12 -177 14 -52 2 -104 7 -115 12 -34 15 -176 10
-212 -8 -21 -10 -33 -12 -36 -5 -2 7 -24 5 -68 -5 -38 -10 -84 -14 -115 -11
-42 4 -63 0 -121 -26 l-70 -30 -156 4 c-101 3 -169 10 -194 19 -21 8 -51 17
-68 21 -16 4 -52 17 -80 30 -27 12 -67 28 -87 35 -50 15 -142 84 -196 146 -24
27 -47 49 -50 50 -22 3 -42 18 -42 33 0 25 -20 41 -52 41 -16 0 -42 10 -58 21
-19 15 -34 19 -47 14 -18 -8 -27 -10 -49 -13 -19 -3 -64 -54 -64 -72 0 -10 -7
-21 -16 -24 -37 -14 -63 -5 -97 34 -34 41 -35 41 -23 93 10 46 16 54 49 70 37
19 37 19 55 -4 l19 -22 112 19 c114 19 135 30 111 58 -9 12 -8 20 6 41 24 37
48 47 123 51 66 4 67 4 78 -26 13 -34 39 -40 48 -11 3 11 13 25 21 32 12 10
20 8 42 -13 15 -14 37 -31 50 -37 12 -6 22 -21 22 -31 0 -16 7 -20 30 -20 18
0 33 -6 36 -15 4 -8 15 -15 25 -15 29 0 25 51 -6 80 -14 13 -22 27 -17 32 8 8
67 -1 147 -21 17 -4 42 -4 58 0 31 8 47 -10 47 -54 0 -21 8 -26 63 -41 34 -10
78 -22 97 -29 19 -6 76 -14 125 -19 211 -18 275 -31 275 -57 0 -12 -41 -47
-80 -67 l-35 -19 35 -5 c19 -3 51 -13 70 -22 19 -8 76 -19 125 -22 50 -4 106
-10 126 -13 31 -4 37 -2 42 16 7 29 -25 36 -88 16 -41 -12 -52 -12 -60 -2 -5
8 -23 17 -40 21 -71 18 -73 50 -4 70 73 22 205 11 236 -20 22 -22 22 -22 40
-2 31 35 50 40 88 24 29 -12 53 -13 133 -5 53 5 104 9 112 8 21 -1 90 1 120 4
19 1 26 -3 28 -20 3 -23 -14 -31 -121 -54 -32 -7 -65 -19 -75 -26 -15 -13 -15
-14 8 -9 14 3 75 13 135 21 61 9 145 23 187 30 43 8 97 12 122 9 47 -7 76 5
76 32 0 7 22 35 49 62 51 51 59 72 66 177 2 33 8 103 13 155 5 52 8 98 5 103
-2 4 -6 56 -9 115 -7 202 -31 487 -42 515 -11 27 -35 36 -47 17 -3 -5 -32 -17
-63 -26 -31 -9 -71 -27 -88 -40 -17 -13 -35 -24 -41 -24 -5 0 -18 -9 -28 -20
-9 -10 -50 -33 -90 -49 -40 -17 -95 -42 -123 -56 -27 -14 -56 -25 -63 -25 -8
0 -43 -14 -79 -31 -77 -37 -365 -114 -505 -135 -55 -8 -154 -15 -221 -16 -103
0 -136 4 -215 27 -92 26 -219 81 -249 107 -26 21 -56 71 -69 109 -10 31 -9 42
6 74 15 31 32 45 108 82 49 25 109 59 132 74 23 16 45 29 49 29 4 0 17 8 28
18 31 28 101 45 196 48 76 3 229 12 255 15 6 0 66 -5 135 -12 221 -23 381 -16
592 26 245 50 301 68 328 106 15 20 19 33 12 42 -5 7 -17 41 -26 76 -9 34 -25
76 -36 91 -11 15 -20 33 -20 39 0 6 -15 28 -33 48 -18 21 -41 52 -52 68 -10
17 -24 34 -32 38 -7 4 -13 14 -13 21 0 6 -16 27 -35 46 -19 18 -40 50 -46 69
-7 20 -20 47 -30 60 -11 13 -19 29 -19 36 0 6 -8 22 -17 33 -10 12 -29 38 -43
57 -55 79 -62 85 -88 85 -42 0 -49 10 -71 90 -11 41 -25 93 -32 115 -6 21 -9
59 -5 85 7 59 -15 145 -38 144 -9 0 -55 -2 -103 -3 l-88 -3 -70 -78 c-38 -42
-81 -92 -95 -109 -14 -18 -46 -56 -72 -85 -27 -29 -48 -56 -48 -59 0 -7 -107
-109 -123 -118 -23 -12 -92 -18 -106 -10 -35 22 23 127 127 231 18 17 32 35
32 40 0 4 9 10 20 13 11 3 20 12 20 21 0 9 4 16 8 16 4 0 28 18 52 41 25 22
54 48 65 57 11 9 33 34 48 55 16 20 52 55 80 76 64 47 94 77 131 129 20 29 38
42 62 47 19 3 33 9 32 13 -5 13 44 60 69 66 15 4 35 0 54 -11 29 -18 30 -18
54 12 31 38 42 75 25 85 -20 13 -81 0 -126 -26 -65 -37 -172 -62 -300 -69
-106 -6 -133 -4 -246 19 -162 33 -173 33 -195 -1 -10 -16 -26 -35 -36 -43 -20
-17 -147 -229 -147 -246 0 -13 -43 -44 -61 -44 -18 0 -1 69 32 127 17 29 32
64 33 78 1 14 16 42 32 63 49 60 49 61 -1 50 -51 -11 -118 6 -192 48 -73 42
-136 25 -149 -41 -7 -39 -20 -53 -61 -64 -25 -7 -28 -12 -25 -43 3 -38 -8 -53
-50 -63 -21 -5 -29 -3 -34 9 -7 19 -20 21 -22 4 0 -7 -17 -56 -36 -108 -20
-52 -36 -107 -36 -122 0 -15 -4 -37 -9 -50 -13 -33 -24 -143 -22 -206 1 -29
-4 -63 -11 -75 -7 -12 -16 -67 -20 -122 -19 -244 -71 -489 -106 -502 -7 -3
-38 0 -68 7 -50 12 -57 18 -120 98 -82 104 -107 155 -129 257 -16 73 -20 131
-26 420 -2 113 11 327 21 340 4 6 15 33 24 61 20 61 92 167 144 210 37 32 37
32 18 53 -23 26 -78 28 -150 6 -63 -19 -72 -19 -94 3 -23 23 -141 34 -217 21z
m171 -44 c-23 -17 -36 -19 -36 -6 0 11 18 19 40 20 11 0 10 -3 -4 -14z m989
-149 c21 -14 24 -20 15 -31 -18 -22 -81 -7 -115 27 l-30 30 52 -4 c28 -3 64
-13 78 -22z m275 -819 c0 -2 -18 -22 -39 -45 -30 -32 -40 -38 -45 -26 -12 31
-6 55 17 64 21 8 67 13 67 7z m-135 -596 c-3 -11 -15 -23 -26 -26 -24 -8 -26
-7 -31 20 -2 15 4 21 27 25 37 8 38 7 30 -19z m-2465 -120 c0 -12 -20 -25 -27
-18 -7 7 6 27 18 27 5 0 9 -4 9 -9z m80 -35 c0 -8 6 -16 14 -19 8 -3 19 -23
26 -44 7 -21 20 -47 30 -58 10 -11 21 -35 25 -53 4 -18 23 -56 42 -85 20 -28
44 -71 54 -93 10 -23 26 -47 34 -54 8 -7 15 -18 15 -25 0 -7 11 -29 25 -49 14
-20 25 -48 25 -62 0 -17 7 -28 20 -31 24 -6 26 -26 4 -44 -16 -13 -15 -68 2
-112 4 -12 1 -17 -10 -17 -16 0 -77 87 -139 200 -19 36 -49 82 -66 104 -17 21
-31 47 -31 57 0 10 -7 24 -15 33 -9 8 -26 53 -40 99 -20 71 -49 153 -80 228
-5 12 1 20 22 27 39 14 43 14 43 -2z m-145 -436 c-3 -5 -14 -10 -23 -10 -15 0
-15 2 -2 10 20 13 33 13 25 0z m3805 -80 c0 -27 -17 -34 -29 -12 -7 13 -7 22
1 30 15 15 28 6 28 -18z m-3886 4 c22 -9 20 -32 -4 -38 -11 -3 -29 -9 -40 -12
-25 -7 -27 17 -4 40 17 18 24 19 48 10z m-681 -50 c6 -6 -35 -89 -53 -108 -13
-13 -60 2 -60 20 0 50 85 116 113 88z m4362 -4 c3 -5 -1 -10 -9 -10 -9 0 -16
5 -16 10 0 6 4 10 9 10 6 0 13 -4 16 -10z m-117 -54 c2 -10 -8 -34 -22 -55
-14 -20 -26 -44 -26 -53 0 -11 -19 -20 -60 -31 -33 -8 -62 -11 -65 -7 -7 11 4
40 27 69 10 13 18 32 18 42 0 19 8 23 46 20 11 -1 29 7 39 19 21 23 38 22 43
-4z m310 -70 c4 -21 -36 -55 -64 -56 -24 0 -48 23 -42 41 4 13 75 39 93 35 6
-2 11 -10 13 -20z m-3694 -13 c4 -9 3 -20 -1 -24 -13 -13 -37 7 -30 25 8 21
23 20 31 -1z m3466 -3 c0 -5 -5 -10 -10 -10 -19 0 -23 -31 -5 -50 12 -13 26
-17 48 -14 18 3 52 -2 76 -10 24 -9 56 -16 72 -16 16 0 29 -4 29 -9 0 -19 39
-22 64 -6 22 14 116 45 140 45 4 0 -6 -16 -23 -35 -17 -20 -31 -40 -31 -45 0
-12 -80 -13 -98 -2 -8 6 -24 -2 -46 -23 -32 -30 -117 -65 -158 -65 -10 0 -72
-13 -136 -29 -91 -23 -139 -29 -217 -29 -127 0 -397 -12 -408 -19 -4 -2 -84
-1 -177 3 -158 6 -170 8 -170 26 0 31 -29 34 -53 5 -26 -31 -75 -42 -119 -28
-18 5 -67 11 -108 13 -41 2 -78 7 -81 12 -4 5 -49 -1 -104 -14 -54 -12 -100
-18 -104 -14 -3 5 -46 9 -96 10 -177 2 -193 3 -199 19 -9 24 4 44 38 62 17 9
34 20 37 25 3 5 25 12 47 15 37 5 42 3 53 -21 13 -28 19 -30 69 -20 27 6 31
11 27 30 -3 17 0 24 12 25 22 0 162 -1 184 -1 9 -1 17 -4 17 -8 0 -4 37 -8 83
-10 79 -3 188 -12 308 -27 35 -5 76 -3 107 5 28 6 57 8 64 4 18 -11 41 -14
133 -18 44 -2 87 -6 96 -10 9 -4 34 -3 57 3 23 5 44 6 46 2 7 -11 169 -4 214
9 23 7 42 19 42 27 0 7 7 13 16 13 9 0 27 9 41 20 18 14 29 17 38 10 22 -18
100 -24 113 -8 9 12 7 19 -12 37 -14 13 -22 29 -19 37 3 8 0 20 -6 28 -8 10 0
19 37 39 50 28 72 33 72 17z m-4235 -30 c8 -13 -57 -30 -70 -18 -6 6 -5 12 5
18 20 13 57 13 65 0z m3411 -35 c-11 -8 -29 -15 -40 -14 -17 0 -15 3 9 14 39
18 55 18 31 0z m314 1 c-6 -9 -19 -12 -28 -8 -17 6 -14 7 37 21 2 1 -2 -5 -9
-13z m360 -36 c0 -5 -7 -10 -15 -10 -8 0 -15 5 -15 10 0 6 7 10 15 10 8 0 15
-4 15 -10z m-4635 -132 c18 -37 43 -80 56 -95 13 -16 33 -49 44 -73 11 -25 27
-52 36 -61 9 -9 20 -35 24 -57 4 -28 12 -42 26 -45 20 -5 28 -47 9 -47 -18 0
9 -40 35 -52 17 -8 33 -35 59 -103 19 -51 47 -110 61 -131 14 -20 25 -45 25
-55 0 -9 15 -50 34 -89 19 -39 37 -89 41 -111 4 -23 14 -43 26 -49 10 -6 19
-19 19 -29 0 -9 18 -41 40 -71 22 -29 47 -78 56 -108 8 -31 24 -66 33 -79 10
-12 24 -44 31 -70 7 -26 21 -57 30 -68 9 -11 22 -38 27 -60 6 -22 26 -81 44
-132 31 -86 32 -93 17 -110 -13 -14 -28 -17 -62 -15 -51 4 -49 0 -82 152 -9
41 -25 84 -34 95 -10 11 -27 55 -38 98 -11 43 -27 86 -36 96 -8 9 -23 46 -32
81 -9 36 -24 74 -34 85 -9 11 -23 43 -30 70 -7 28 -21 59 -30 70 -10 11 -22
35 -29 54 -6 19 -18 42 -25 50 -8 9 -19 35 -25 57 -6 23 -17 47 -25 53 -8 7
-17 24 -21 39 -3 15 -18 44 -32 64 -19 28 -24 44 -19 65 22 90 21 93 -48 103
-39 5 -40 7 -53 60 -8 30 -20 60 -27 65 -7 6 -19 27 -25 48 -7 21 -19 41 -27
44 -8 3 -14 10 -14 16 0 19 -80 177 -90 177 -5 0 -14 25 -21 54 -10 48 -10 58
5 81 15 23 20 24 33 13 9 -7 31 -43 48 -80z m2795 -55 c0 -14 -6 -17 -52 -27
-35 -8 -36 7 -3 40 21 21 29 23 40 14 8 -7 15 -19 15 -27z m-32 -155 c17 -17
15 -28 -6 -28 -19 0 -42 18 -42 32 0 12 35 9 48 -4z m-485 -148 c-3 -11 -9
-20 -14 -20 -5 0 -9 -10 -9 -22 0 -27 -57 -88 -82 -88 -11 0 -18 7 -18 19 0
32 29 91 45 91 8 0 23 9 32 20 10 11 25 20 34 20 12 0 16 -6 12 -20z m-1407
-56 c5 -21 2 -31 -15 -43 -18 -14 -20 -23 -15 -64 7 -52 6 -51 51 -38 22 6 37
6 48 -3 23 -17 3 -32 -52 -39 -38 -4 -43 -3 -43 14 0 12 -7 19 -19 19 -15 0
-21 10 -26 39 -4 22 -13 45 -21 52 -25 21 -16 48 24 68 50 27 60 26 68 -5z
m-141 3 c16 -13 14 -15 -23 -24 -42 -11 -45 -8 -19 25 12 15 19 15 42 -1z
m-105 -36 c0 -5 -9 -11 -20 -14 -22 -6 -29 18 -7 26 14 5 27 -1 27 -12z m-222
-44 c2 -10 -3 -17 -12 -17 -10 0 -16 9 -16 21 0 24 23 21 28 -4z m841 -48 c43
-39 100 -85 127 -103 64 -43 99 -103 89 -154 -10 -56 -10 -85 -1 -109 5 -18 4
-23 -8 -23 -10 0 -16 -9 -16 -25 0 -14 -8 -33 -17 -43 -10 -10 -28 -31 -40
-45 -19 -22 -31 -27 -70 -27 -44 1 -53 5 -105 55 -47 43 -64 70 -92 137 -19
46 -43 122 -52 170 -17 83 -17 88 0 140 15 43 27 59 55 75 20 12 40 21 44 22
5 1 44 -31 86 -70z m1534 46 c18 -25 18 -25 -9 -35 -44 -17 -57 -6 -36 30 9
16 19 30 22 30 3 -1 13 -12 23 -25z m27 -75 c0 -5 -7 -10 -15 -10 -8 0 -15 5
-15 10 0 6 7 10 15 10 8 0 15 -4 15 -10z m-2010 -38 c0 -25 51 -72 79 -72 41
0 61 -18 61 -55 0 -42 -19 -61 -69 -70 -21 -3 -54 -18 -73 -31 l-33 -25 -3 37
c-2 20 -1 48 3 61 5 21 10 24 35 18 26 -6 31 -3 40 20 16 43 13 46 -37 40 -35
-5 -53 -2 -68 9 -11 8 -15 16 -8 16 6 0 20 16 32 35 22 38 41 46 41 17z m2228
-96 c4 -16 -14 -46 -27 -46 -3 0 -12 4 -20 9 -12 8 -12 13 3 36 19 28 39 29
44 1z m-4649 -100 c14 -15 44 -37 68 -47 45 -19 51 -27 31 -47 -25 -25 -57
-12 -118 48 -54 53 -60 62 -50 81 13 23 24 17 69 -35z m3424 19 c-5 -32 -3
-35 18 -35 13 0 48 7 77 14 28 8 52 10 52 6 0 -20 -13 -40 -26 -40 -20 0 -17
-16 7 -38 20 -19 21 -19 121 6 99 25 101 25 172 8 96 -22 106 -21 106 9 0 25
1 25 90 25 71 0 99 4 130 20 l39 20 11 -20 c6 -11 21 -20 35 -20 13 0 26 -4
29 -9 3 -5 20 -12 38 -15 18 -4 60 -21 93 -39 61 -33 68 -46 54 -97 -3 -11 6
-16 36 -18 85 -5 226 -33 289 -57 37 -14 77 -25 91 -25 13 0 44 -14 68 -31 38
-26 47 -29 68 -19 21 10 40 5 129 -30 58 -23 107 -45 110 -49 10 -13 146 -30
200 -24 47 4 64 1 106 -20 28 -14 51 -32 51 -39 0 -7 3 -23 7 -34 5 -18 2 -23
-20 -28 -14 -4 -40 -3 -58 2 -17 5 -67 18 -111 28 -44 10 -84 21 -89 26 -6 4
-18 8 -28 8 -11 0 -32 7 -48 15 -16 8 -85 22 -152 31 -68 9 -150 26 -183 37
-33 12 -72 20 -87 18 -16 -1 -28 2 -28 8 0 7 -25 11 -62 11 -35 0 -101 9 -148
21 -47 11 -103 22 -125 24 -188 17 -173 18 -189 -14 -20 -37 -69 -78 -118 -98
-26 -10 -38 -21 -38 -34 0 -31 -28 -66 -58 -74 -69 -16 -82 -28 -82 -70 0 -23
-5 -46 -11 -52 -8 -8 -5 -16 10 -30 14 -13 17 -23 11 -33 -5 -8 -10 -26 -10
-38 0 -15 -7 -26 -19 -29 -17 -4 -28 -22 -44 -74 -7 -21 -107 -35 -135 -20
-40 21 -215 43 -295 37 -94 -7 -146 13 -173 67 -9 17 -39 53 -65 78 -42 40
-49 52 -49 84 0 26 7 44 23 59 12 12 31 35 42 50 18 26 28 29 100 36 44 4 93
13 109 21 26 12 30 12 40 -5 29 -48 49 -66 84 -72 20 -4 47 -14 59 -21 15 -10
40 -14 73 -11 35 2 50 -1 50 -9 0 -7 9 -13 19 -13 11 0 26 -9 34 -20 13 -19
15 -18 57 25 l43 43 -23 37 c-19 30 -21 41 -11 61 20 45 15 56 -26 52 -35 -3
-38 -1 -38 22 0 21 -4 24 -25 22 -14 -2 -45 -6 -69 -9 -34 -4 -42 -2 -39 8 3
8 20 16 39 20 19 3 43 11 55 18 17 11 26 11 55 -4 23 -12 65 -20 131 -23 l97
-5 12 27 c7 14 10 29 6 32 -23 23 -254 43 -560 47 -108 2 -118 1 -123 -18 -6
-18 -104 -138 -145 -178 -11 -10 -19 -21 -19 -25 0 -4 -27 -35 -60 -70 -33
-35 -60 -71 -60 -81 0 -10 -6 -24 -14 -30 -8 -7 -18 -26 -21 -42 -4 -16 -13
-29 -21 -29 -8 0 -14 -6 -14 -14 0 -8 -9 -18 -21 -21 -13 -4 -32 -31 -50 -69
-17 -33 -41 -76 -54 -95 -30 -41 -32 -54 -5 -46 14 4 26 0 38 -14 15 -17 33
-21 131 -26 112 -6 192 -26 230 -58 24 -21 127 -40 176 -32 36 5 51 2 82 -17
21 -13 63 -30 93 -37 30 -8 63 -20 73 -29 36 -32 64 -45 129 -61 26 -6 88 -29
137 -51 49 -22 104 -43 122 -47 19 -3 36 -9 39 -13 16 -23 264 -120 305 -120
9 0 39 -11 67 -25 27 -14 58 -25 68 -25 11 0 36 -11 56 -25 20 -14 47 -25 60
-25 13 0 27 -6 31 -12 11 -18 79 -48 107 -48 13 0 29 -7 36 -15 14 -16 149
-85 168 -85 7 0 22 -5 33 -11 17 -9 18 -13 8 -26 -17 -20 -81 -10 -136 23 -23
13 -50 24 -61 24 -11 0 -36 11 -56 25 -20 14 -45 25 -54 25 -10 0 -22 4 -27 9
-10 9 -57 27 -225 88 -52 19 -96 38 -98 43 -2 6 -15 10 -28 10 -13 0 -32 4
-42 9 -34 17 -128 53 -157 60 -17 5 -98 33 -180 63 -195 71 -217 78 -245 78
-28 0 -142 33 -210 60 -25 10 -74 26 -110 35 -36 9 -69 20 -75 25 -15 11 -101
20 -135 14 -37 -8 -86 -56 -100 -100 -13 -38 -39 -50 -70 -34 -18 10 -21 17
-15 51 9 53 -15 63 -56 23 -36 -34 -36 -40 -1 -58 27 -15 27 -15 -25 -16 -58
0 -72 16 -54 63 11 30 39 50 93 67 43 13 55 27 39 43 -15 15 -220 -5 -230 -22
-7 -10 -23 -8 -77 8 -74 22 -114 45 -114 65 0 7 11 23 25 36 14 13 25 31 25
39 0 9 11 27 26 41 37 36 93 129 105 173 5 21 19 46 30 55 10 9 19 24 19 34 0
10 9 23 20 30 11 7 20 18 20 24 0 6 9 23 21 38 11 14 25 43 31 62 5 20 20 47
33 60 12 12 21 25 19 27 -3 3 38 70 90 150 52 80 98 157 102 171 3 15 15 31
26 37 11 6 17 17 14 25 -6 15 100 132 121 133 8 1 10 -10 6 -34z m-903 -83 c0
-21 6 -44 12 -50 10 -10 10 -15 -2 -22 -22 -14 -22 -14 -64 25 -21 19 -42 35
-47 35 -5 0 -9 6 -9 14 0 7 18 18 43 23 67 17 67 16 67 -25z m690 -62 c0 -5
-10 -14 -21 -21 -18 -9 -25 -7 -42 10 l-21 21 42 0 c23 0 42 -4 42 -10z
m-1278 -138 c-8 -2 -21 3 -30 12 -14 14 -13 16 9 24 20 8 25 6 30 -12 3 -13 0
-22 -9 -24z m771 -64 c9 -7 17 -26 19 -42 3 -27 -1 -31 -32 -37 -34 -8 -105 4
-114 19 -3 4 7 22 20 40 28 35 75 44 107 20z m-2313 -17 c0 -22 -16 -36 -24
-22 -8 12 3 41 15 41 5 0 9 -9 9 -19z m3115 8 c4 -5 0 -18 -9 -28 -15 -16 -15
-19 -1 -31 29 -24 18 -40 -28 -40 -47 0 -94 24 -67 34 8 3 27 10 43 15 20 8
27 17 27 36 0 25 23 35 35 14z m-487 -125 c-2 -1 -15 -5 -29 -9 -37 -9 -47 30
-16 63 l21 23 13 -37 c7 -21 12 -38 11 -40z m3037 -95 c22 -12 51 -32 66 -45
23 -22 33 -24 127 -24 l102 0 0 -33 c0 -49 -25 -57 -141 -47 -103 9 -166 32
-175 65 -3 12 -15 25 -27 30 -15 7 -23 20 -25 43 -4 39 14 42 73 11z m-5242
-46 c4 -7 15 -13 22 -13 20 0 19 -36 0 -44 -8 -3 -28 -3 -44 0 -21 5 -31 14
-39 39 -8 29 -7 35 7 38 22 5 44 -4 54 -20z m5095 -5 c-6 -18 -28 -21 -28 -4
0 9 7 16 16 16 9 0 14 -5 12 -12z m-4978 -118 c0 -29 -25 -43 -49 -28 -26 16
-27 53 -4 67 21 11 53 -12 53 -39z m98 -67 c2 -18 -3 -35 -13 -43 -13 -11 -19
-9 -40 10 -29 27 -31 38 -9 68 14 21 18 22 37 9 13 -8 23 -27 25 -44z m2286
-32 c31 -34 -12 -71 -80 -71 -22 0 -16 26 12 59 30 36 44 38 68 12z m-34 -101
c-7 -13 -21 -20 -40 -20 -38 0 -39 15 -2 28 45 17 54 15 42 -8z m50 -40 c0
-15 -39 -32 -60 -25 -39 12 -18 31 38 34 12 0 22 -3 22 -9z m1047 -172 c11
-13 23 -29 27 -36 10 -16 -21 -52 -44 -52 -26 0 -67 36 -78 69 -9 25 -8 31 6
34 41 11 70 6 89 -15z m-304 -75 c-6 -15 -13 -16 -31 -4 -11 6 -10 11 4 25 13
13 19 14 25 5 4 -7 5 -18 2 -26z m432 -3 c-3 -5 2 -27 11 -49 13 -33 14 -44 4
-56 -16 -19 -43 -19 -80 0 -36 19 -37 25 -5 53 14 12 25 32 25 45 0 13 3 27 6
30 9 9 46 -12 39 -23z m-2660 0 c-3 -5 -12 -10 -18 -10 -7 0 -6 4 3 10 19 12
23 12 15 0z m1074 -71 c-16 -10 -23 -4 -14 10 3 6 11 8 17 5 6 -4 5 -9 -3 -15z
m273 -100 c61 -13 155 -60 182 -92 44 -53 116 -226 116 -282 0 -28 -49 -51
-137 -65 -37 -6 -86 -16 -109 -21 -36 -9 -49 -7 -130 26 -161 67 -168 74 -199
212 l-18 82 43 56 c50 65 49 64 109 80 59 17 79 17 143 4z m1448 -8 c0 -6 -4
-13 -10 -16 -5 -3 -10 1 -10 9 0 9 5 16 10 16 6 0 10 -4 10 -9z m683 -168 c-7
-2 -19 -2 -25 0 -7 3 -2 5 12 5 14 0 19 -2 13 -5z m-5005 -309 c32 -9 70 -27
85 -40 16 -13 37 -24 47 -24 28 0 33 -17 9 -31 -17 -8 -23 -8 -29 1 -4 7 -17
11 -28 8 -11 -3 -33 3 -49 13 -15 11 -44 24 -64 29 -27 8 -38 17 -41 35 -6 30
-3 30 70 9z m374 -113 c13 -5 31 -12 42 -15 15 -5 16 -9 6 -21 -10 -12 -24
-14 -59 -9 -66 9 -77 17 -56 37 19 19 34 21 67 8z m2188 -31 c0 -5 -2 -10 -4
-10 -3 0 -8 5 -11 10 -3 6 -1 10 4 10 6 0 11 -4 11 -10z m3669 -83 c13 -16 5
-27 -20 -27 -24 0 -35 20 -18 31 19 12 25 11 38 -4z m-4159 -237 c0 -33 -24
-50 -43 -31 -8 8 -5 17 13 36 13 14 25 25 27 25 2 0 3 -14 3 -30z m3621 -342
c0 -7 2 -26 2 -43 2 -31 2 -31 93 -54 36 -10 42 -15 47 -44 3 -22 0 -36 -10
-44 -23 -18 -103 -4 -136 24 -16 12 -41 23 -57 23 -16 0 -30 7 -34 16 -8 22 1
34 28 34 32 0 38 10 21 36 -22 34 -9 56 38 63 4 0 7 -5 8 -11z m-551 -862
c-52 -19 -120 -30 -120 -18 0 11 72 29 120 30 l35 1 -35 -13z"/>
<path d="M6708 8979 c-18 -10 -26 -69 -10 -69 17 0 72 41 72 54 0 24 -34 32
-62 15z"/>
<path d="M7234 5909 c-8 -14 14 -29 44 -29 27 0 29 16 3 30 -25 13 -38 13 -47
-1z"/>
<path d="M7882 5848 c-24 -24 -14 -41 19 -34 17 3 38 6 45 6 23 0 16 27 -8 34
-33 8 -43 7 -56 -6z"/>
<path d="M7765 5820 c-3 -5 1 -10 9 -10 8 0 18 5 21 10 3 6 -1 10 -9 10 -8 0
-18 -4 -21 -10z"/>
<path d="M8677 5653 c4 -16 7 -38 8 -50 0 -13 6 -23 13 -23 18 0 15 65 -4 84
-22 22 -25 20 -17 -11z"/>
<path d="M7280 2435 c-11 -14 -6 -35 9 -35 4 0 22 11 41 25 l34 25 -36 0 c-19
0 -41 -7 -48 -15z"/>
<path d="M5120 1991 c0 -12 5 -21 10 -21 6 0 10 6 10 14 0 8 -4 18 -10 21 -5
3 -10 -3 -10 -14z"/>
</g>
</svg>
